<?xml version="1.0" encoding="UTF-8"?>
<svg id="Camada_1" data-name="Camada 1" xmlns="http://www.w3.org/2000/svg" viewBox="190 250 195 190">
  <defs>
    <style>
      .cls-1 {
        fill: #010101;
      }

      .cls-2 {
        fill: #f2f3f2;
        stroke: #010101;
        stroke-miterlimit: 10;
        stroke-width: .26px;
      }
    </style>
  </defs>
  <g>
    <path class="cls-1" d="M255.85,291.26c.56-.62.9-1.43.9-2.32,0-1.93-1.58-3.5-3.54-3.5l-13.54-.02c26.31-20,63.44-20.65,90.53-.89,1.49,1.08,3.55.85,4.75-.48.07-.08.14-.16.21-.25,1.16-1.55.83-3.74-.74-4.89-29.41-21.45-69.63-20.93-98.38.45l4.47-11.93c.68-1.81-.26-3.82-2.1-4.49-1.84-.67-3.87.26-4.55,2.07l-8.49,22.67c-.4,1.07-.25,2.27.41,3.21.66.94,1.75,1.5,2.9,1.5l24.51.04c1.05,0,2-.45,2.65-1.17Z"/>
    <path class="cls-1" d="M317.21,396.72c-1.96,0-3.55,1.56-3.55,3.49,0,1.93,1.58,3.5,3.54,3.5l13.24.02c-25.89,19-61.92,19.69-88.63.82-1.59-1.12-3.81-.76-4.95.81-1.14,1.57-.77,3.75.82,4.88,7.79,5.5,16.4,9.58,25.61,12.12,8.96,2.47,18.22,3.43,27.54,2.84,9.32-.59,18.39-2.71,26.96-6.3,5.95-2.49,11.54-5.65,16.7-9.42l-4.59,12.24c-.68,1.81.26,3.82,2.1,4.49,1.41.51,2.93.09,3.88-.95.29-.32.52-.69.68-1.11l8.49-22.67c.4-1.07.25-2.27-.41-3.21-.66-.94-1.75-1.5-2.9-1.5l-24.51-.04Z"/>
    <path class="cls-1" d="M232.59,403.25c.58-.64.9-1.47.9-2.35l-.18-24.17c-.01-1.93-1.61-3.48-3.57-3.47-1.96.01-3.53,1.59-3.52,3.52l.1,13.16c-20.7-25.96-21.56-62.68-1.36-89.68,1.16-1.55.83-3.74-.75-4.89-1.58-1.15-3.8-.81-4.96.74-5.76,7.7-10.05,16.25-12.75,25.42-2.62,8.91-3.67,18.14-3.12,27.44.55,9.3,2.69,18.34,6.36,26.89,2.76,6.44,6.34,12.46,10.66,17.97l-12.33-4.37c-1.84-.65-3.87.29-4.53,2.11-.66,1.82.29,3.82,2.14,4.47l23.07,8.18c1.09.39,2.3.22,3.25-.44.22-.15.42-.33.6-.53Z"/>
    <path class="cls-1" d="M366.43,293.61l-23.07-8.18c-1.09-.39-2.3-.22-3.25.44-.95.66-1.5,1.73-1.5,2.88l.18,24.17c.01,1.93,1.61,3.48,3.57,3.47,1.96-.01,3.53-1.59,3.52-3.52l-.1-13.06c19.37,25.55,20.05,61.33.89,87.61-1.14,1.57-.78,3.75.81,4.88,1.49,1.05,3.52.81,4.71-.51.08-.09.16-.19.23-.29,5.54-7.6,9.67-16.01,12.26-24.99,2.53-8.74,3.54-17.79,3.01-26.9-.53-9.11-2.57-17.98-6.09-26.38-2.6-6.23-5.97-12.07-10.03-17.44l12.44,4.41c1.4.5,2.91.07,3.85-.96.29-.32.53-.71.69-1.14.66-1.82-.29-3.82-2.14-4.47Z"/>
  </g>
  <g>
    <path class="cls-2" d="M254.02,301.89c1.12-.81,1.37-2.36.54-3.46-.82-1.1-2.39-1.35-3.51-.54-5.48,3.95-10.18,8.77-13.95,14.33-3.67,5.4-6.38,11.35-8.04,17.67-1.66,6.32-2.22,12.82-1.67,19.3.57,6.67,2.31,13.14,5.17,19.23.03.07.07.14.11.21.64,1.09,2.04,1.55,3.23,1,1.26-.57,1.81-2.05,1.23-3.29-10.62-22.62-3.51-49.72,16.89-64.44Z"/>
    <path class="cls-2" d="M259.9,295.59c.65,1.1,2.04,1.55,3.23,1,23.3-10.69,51.01-3.46,65.9,17.2.8,1.12,2.37,1.38,3.51.58s1.4-2.34.59-3.46c-3.99-5.53-8.88-10.27-14.55-14.1-5.51-3.72-11.59-6.46-18.06-8.15-6.48-1.69-13.13-2.27-19.79-1.73-6.84.56-13.48,2.29-19.72,5.16-1.26.58-1.8,2.05-1.22,3.29.03.07.07.14.11.2Z"/>
    <path class="cls-2" d="M338.88,320.83c-.57-1.25-2.06-1.81-3.32-1.25-1.27.56-1.83,2.03-1.27,3.28,10.37,22.82,2.88,49.87-17.82,64.33-1.07.75-1.37,2.17-.72,3.26.04.07.08.13.12.19.8,1.12,2.37,1.38,3.5.59,22.65-15.82,30.85-45.43,19.5-70.4Z"/>
    <path class="cls-2" d="M268.23,307.91v14.4h11.63v-14.4c0-3.17-2.6-5.73-5.82-5.73s-5.82,2.57-5.82,5.73Z"/>
    <path class="cls-2" d="M295.16,307.91v14.4h11.63v-14.4c0-3.17-2.6-5.73-5.82-5.73s-5.82,2.57-5.82,5.73Z"/>
    <path class="cls-2" d="M318.55,330.48l-.11-2.06-62.03-.08-.1,2.07c-.06,1.13-.04,2.26-.02,3.36,0,.53.02,1.08.02,1.62,0,11.78,6.09,22.69,15.9,28.46l.84.5c2.36,1.66,4.25,4.27,5.25,7.31.36,1.11.6,2.24.7,3.35v.05s0,21.39,0,21.39c-14.24-1.77-27.63-9.13-36.49-21.1-.82-1.11-2.39-1.35-3.51-.54-1.05.75-1.33,2.16-.69,3.24.04.07.09.15.15.22,3.97,5.36,8.8,9.97,14.37,13.68,5.41,3.61,11.37,6.29,17.71,7.96,4.23,1.11,8.55,1.75,12.89,1.91v-5s0,0,0,0v-21.95l-.02-.25c-.14-1.45-.44-2.89-.9-4.3-1.43-4.38-4.36-8.12-8.02-10.25l-1.07-.62c-7.86-5.14-12.69-14.25-12.69-24.07,0-.57,0-1.14-.02-1.69,0-.34-.01-.67-.01-1l23.64.03-6.17,12.9h9.93l-5.21,15.16,19.28-21.26h-9.85l4.01-6.79,17.85.02c0,.31,0,.63-.01.96,0,.54-.02,1.1-.02,1.66,0,10.22-5.24,19.67-13.67,24.68l-.09.05c-3.63,2.12-6.43,5.74-7.89,10.2-.46,1.41-.76,2.86-.9,4.32l-.02.24v19.35h0v7.34c6.12-.62,12.07-2.18,17.71-4.66,1.27-.56,1.84-2.02,1.27-3.27-.56-1.25-2.05-1.81-3.32-1.26-3.66,1.61-7.44,2.77-11.26,3.51v-20.87c.11-1.13.35-2.26.71-3.37,1.13-3.46,3.25-6.23,5.95-7.8l.12-.07c9.75-5.79,15.8-16.67,15.8-28.4,0-.53,0-1.07.02-1.59.02-1.08.04-2.19-.02-3.31Z"/>
  </g>
</svg>