<?xml version="1.0" encoding="UTF-8"?>
<svg id="Camada_1" data-name="Camada 1" xmlns="http://www.w3.org/2000/svg" viewBox="258 268 48 82">
  <defs>
    <style>
      .cls-1 {
        fill: #1d1d1b;
        stroke: #1d1d1b;
        stroke-miterlimit: 10;
        stroke-width: 1.66px;
      }
    </style>
  </defs>
  <path class="cls-1" d="M269.17,299.82v21.49c0,7.12,7.35,13.11,17.06,14.52v-7.14c-5.08-.99-8.84-4.22-8.84-8.04v-20.11c0-3.82,3.76-7.05,8.84-8.04v-6.8c0-.14,0-.27.02-.41-9.72,1.41-17.07,7.4-17.07,14.52Z"/>
  <path class="cls-1" d="M296.64,321.59c-.55,0-1,.31-1,.69v.19c-.34-.03-.67-.05-1.02-.05-4.6,0-8.37,2.61-8.37,5.79v8.39c0,3.18,3.77,5.79,8.37,5.79.35,0,.69-.02,1.02-.05v.19c0,.38.45.69,1,.69s1-.31,1-.69v-20.24c0-.38-.45-.69-1-.69Z"/>
  <path class="cls-1" d="M296.64,278.19c-.55,0-1,.31-1,.69v.19c-.34-.03-.67-.05-1.02-.05-4.6,0-8.37,2.61-8.37,5.79v8.39c0,3.18,3.77,5.79,8.37,5.79.35,0,.69-.02,1.02-.05v.19c0,.38.45.69,1,.69s1-.31,1-.69v-20.24c0-.38-.45-.69-1-.69Z"/>
</svg>