<?xml version="1.0" encoding="UTF-8"?>
<svg id="Camada_1" data-name="Camada 1" xmlns="http://www.w3.org/2000/svg" viewBox="222 296 124 82">
  <defs>
    <style>
      .cls-1 {
        fill: #fafafa;
        stroke: #010101;
        stroke-miterlimit: 10;
        stroke-width: .12px;
      }

      .cls-2 {
        fill: #020303;
      }
    </style>
  </defs>
  <ellipse class="cls-1" cx="237.91" cy="361.92" rx="5.07" ry="3.91"/>
  <ellipse class="cls-1" cx="257.35" cy="352.38" rx="6.33" ry="4.88"/>
  <path class="cls-1" d="M333.75,326.14c1.9,2.25,3,4.91,3,7.77,0,8.04-8.72,14.56-19.48,14.56-6.81,0-12.8-2.61-16.28-6.56-3.06,2.96-7.85,4.86-13.24,4.86-7.42,0-13.71-3.61-15.9-8.61-.27,0-.55.01-.83.01-11.04,0-19.99-6.69-19.99-14.94s8.95-14.94,19.99-14.94c.07,0,.13,0,.2,0,3.55-5.49,11.08-9.29,19.79-9.29,5.5,0,10.52,1.51,14.37,4,2.85-1.01,6.04-1.58,9.41-1.58,12.13,0,21.96,7.35,21.96,16.41,0,3.02-1.09,5.85-3,8.28Z"/>
  <ellipse class="cls-2" cx="297.44" cy="332.54" rx="4.64" ry="3.58"/>
  <path class="cls-2" d="M301.72,306.7l-.67-.24s-.07-.02-.11-.03l-.75-.19-.36-.11c-.12-.04-.24-.05-.37-.05h-3.37c-.05,0-.1,0-.16,0-.44.05-2.57.33-.95.29,1.57-.03-.29,0-.79,0-.08,0-.15,0-.22.02l-2.18.42c-.06.01-.12.03-.18.05l-1.85.65s-.05.02-.08.03l-1.33.58s-.09.04-.13.07l-.91.55s-.09.06-.12.09l-1.06.91s-.03.03-.05.04l-1.17.86s-.05.03-.07.05l-.83.73c-.06.05-.11.11-.14.17l-.56.86c-.04.06-.07.13-.09.2l-.07.26c-.08.31.08.62.42.8.02.01.05.03.07.04l.77.5,1.31.78s.05.03.07.04l.55.27s.06.03.08.05l.63.39.76.46s.07.04.1.05l.62.29.31.14c.25.11.56.14.83.06.61-.17,1.05-.56,1.14-.64.01,0,.03-.02.04-.03.31-.24,3.36-2.67,3.61-2.74.27-.07,4.13-.56,5.17-.07,1.03.49,2.02,1.47,1.98,1.71-.04.24.63,1.81-1.21,2.93-.66.4-1.43.77-2.14,1.08-.97.42-1.83.73-2.18.85-.11.04-.22.09-.3.16l-1.76,1.36s-.05.04-.07.06c-.24.24-1.66,1.62-1.58,1.75.08.12-.32,1.38-.42,1.7-.02.05-.03.1-.03.16-.02.38-.08,1.96.27,2.08.2.07.39.16.53.24.17.09.37.14.58.14h7.24c.56-.12.81-.31.93-.47.18-.24.06-.37.25-1,.13-.41.26-.6.31-.66.18-.24.38-.39.5-.49,0,0,1.56-1.37,3.3-2.14,0,0,.02-.01.05-.03.02-.01.05-.02.07-.04l3.6-2.17c.11-.07.2-.15.27-.24.44-.62,2.15-3.1,1.87-3.77-.08-.19.03-1.71.03-1.99,0-.28-.12.68-.11.58,0-.02,0-.05.01-.07l.07-.32c.02-.08.02-.16,0-.24-.01-.07-.04-.12-.04-.14-.49-1.1-.67-1.82-1.24-2.67-.74-1.1-1.69-1.75-2.99-2.64-.85-.58-1.44-.99-2.41-1.38,0,0-.57-.23-3.2-.96,0,0-.05-.02-.08-.03Z"/>
</svg>