<?xml version="1.0" encoding="UTF-8"?>
<svg id="Camada_1" data-name="Camada 1" xmlns="http://www.w3.org/2000/svg" viewBox="182 258 138 148">
  <defs>
    <style>
      .cls-1 {
        stroke: #fff;
      }

      .cls-1, .cls-2, .cls-3, .cls-4, .cls-5 {
        stroke-miterlimit: 10;
        stroke-width: 2.25px;
      }

      .cls-1, .cls-2, .cls-3, .cls-5 {
        fill: none;
      }

      .cls-2 {
        stroke: #1d71b8;
      }

      .cls-3, .cls-4 {
        stroke: #e30613;
      }

      .cls-4 {
        fill: #1d1d1b;
      }

      .cls-5 {
        stroke: #1d1d1b;
      }

      .cls-6 {
        opacity: .99;
      }
    </style>
  </defs>
  <g class="cls-6">
    <ellipse class="cls-2" cx="250.03" cy="343.94" rx="58.94" ry="53.27"/>
    <path class="cls-2" d="M250.03,290.67c-11.41,0-22.05,2.94-31.08,8.01,10.47,2.84,18.16,11.64,18.16,22h0c0,2.14-.34,4.21-.96,6.17.66-.07,1.24,0,1.7.27,3.14,1.84,0,11.29-7,21.38-2.26,5.26-6.05,9.59-10.75,12.31-4.05,3.51-7.56,5.2-9.37,4.15-.14-.08-.26-.2-.37-.32-2.98,2.97-7.16,4.91-11.83,5.19,10.07,16.32,29.35,27.37,51.5,27.37,32.55,0,58.94-23.85,58.94-53.27s-26.39-53.27-58.94-53.27Z"/>
    <path class="cls-2" d="M302.59,368.03c-.59-.02-1.18-.04-1.78-.04-2.48,0-4.84.21-7.04.57-.84-.36-1.75-.57-2.7-.57-1.01,0-1.97.23-2.85.63-1.77-.41-3.65-.63-5.62-.63-8.44,0-15.49,4.05-17.42,9.5-.51.35-1,.73-1.46,1.14-4.64,4.19-5.32,10.92-2.55,17.61,18.13-3.14,33.3-13.78,41.42-28.21Z"/>
  </g>
  <g class="cls-6">
    <ellipse class="cls-1" cx="250.03" cy="343.94" rx="58.94" ry="53.27"/>
    <path class="cls-1" d="M250.03,290.67c-11.41,0-22.05,2.94-31.08,8.01,10.47,2.84,18.16,11.64,18.16,22h0c0,2.14-.34,4.21-.96,6.17.66-.07,1.24,0,1.7.27,3.14,1.84,0,11.29-7,21.38-2.26,5.26-6.05,9.59-10.75,12.31-4.05,3.51-7.56,5.2-9.37,4.15-.14-.08-.26-.2-.37-.32-2.98,2.97-7.16,4.91-11.83,5.19,10.07,16.32,29.35,27.37,51.5,27.37,32.55,0,58.94-23.85,58.94-53.27s-26.39-53.27-58.94-53.27Z"/>
    <path class="cls-1" d="M302.59,368.03c-.59-.02-1.18-.04-1.78-.04-2.48,0-4.84.21-7.04.57-.84-.36-1.75-.57-2.7-.57-1.01,0-1.97.23-2.85.63-1.77-.41-3.65-.63-5.62-.63-8.44,0-15.49,4.05-17.42,9.5-.51.35-1,.73-1.46,1.14-4.64,4.19-5.32,10.92-2.55,17.61,18.13-3.14,33.3-13.78,41.42-28.21Z"/>
  </g>
  <g>
    <g>
      <g>
        <line class="cls-3" x1="306.71" y1="316.02" x2="300.86" y2="316.02"/>
        <line class="cls-3" x1="306.71" y1="309.71" x2="300.86" y2="309.71"/>
      </g>
      <g>
        <line class="cls-3" x1="306.71" y1="316.02" x2="300.86" y2="316.02"/>
        <line class="cls-3" x1="306.71" y1="309.71" x2="300.86" y2="309.71"/>
      </g>
      <g>
        <line class="cls-3" x1="306.71" y1="316.02" x2="300.86" y2="316.02"/>
        <line class="cls-3" x1="306.71" y1="309.71" x2="300.86" y2="309.71"/>
      </g>
      <g>
        <line class="cls-3" x1="306.71" y1="316.02" x2="300.86" y2="316.02"/>
        <line class="cls-3" x1="306.71" y1="309.71" x2="300.86" y2="309.71"/>
      </g>
      <g>
        <line class="cls-3" x1="306.71" y1="309.71" x2="300.86" y2="309.71"/>
        <line class="cls-3" x1="306.71" y1="303.39" x2="300.86" y2="303.39"/>
      </g>
      <g>
        <line class="cls-3" x1="306.71" y1="309.71" x2="300.86" y2="309.71"/>
        <line class="cls-3" x1="306.71" y1="303.39" x2="300.86" y2="303.39"/>
      </g>
      <g>
        <line class="cls-3" x1="306.71" y1="309.71" x2="300.86" y2="309.71"/>
        <line class="cls-3" x1="306.71" y1="303.39" x2="300.86" y2="303.39"/>
      </g>
      <g>
        <line class="cls-3" x1="306.71" y1="303.39" x2="300.86" y2="303.39"/>
        <line class="cls-3" x1="306.71" y1="297.08" x2="300.86" y2="297.08"/>
      </g>
      <g>
        <line class="cls-3" x1="306.71" y1="290.77" x2="300.86" y2="290.77"/>
        <line class="cls-3" x1="306.71" y1="284.46" x2="300.86" y2="284.46"/>
      </g>
      <g>
        <line class="cls-3" x1="306.71" y1="297.08" x2="300.86" y2="297.08"/>
        <line class="cls-3" x1="306.71" y1="290.77" x2="300.86" y2="290.77"/>
      </g>
    </g>
    <path class="cls-5" d="M306.88,319.93v-47.31c0-3.79-3.43-6.89-7.62-6.89s-7.62,3.1-7.62,6.89v47.31c-2.71,2-4.44,5.04-4.44,8.44,0,6.02,5.4,10.9,12.06,10.9s12.06-4.88,12.06-10.9c0-3.4-1.73-6.44-4.44-8.44Z"/>
    <path class="cls-3" d="M306.88,319.93v-40.88h-15.24v40.88c-2.71,2-4.44,5.04-4.44,8.44,0,6.02,5.4,10.9,12.06,10.9s12.06-4.88,12.06-10.9c0-3.4-1.73-6.44-4.44-8.44Z"/>
  </g>
  <path class="cls-1" d="M306.88,319.93v-47.31c0-3.79-3.43-6.89-7.62-6.89s-7.62,3.1-7.62,6.89v47.31c-2.71,2-4.44,5.04-4.44,8.44,0,6.02,5.4,10.9,12.06,10.9s12.06-4.88,12.06-10.9c0-3.4-1.73-6.44-4.44-8.44Z"/>
  <path class="cls-4" d="M306.88,319.93v-40.88h-15.24v40.88c-2.71,2-4.44,5.04-4.44,8.44,0,6.02,5.4,10.9,12.06,10.9s12.06-4.88,12.06-10.9c0-3.4-1.73-6.44-4.44-8.44Z"/>
  <g>
    <g>
      <line class="cls-3" x1="306.71" y1="316.02" x2="300.86" y2="316.02"/>
      <line class="cls-3" x1="306.71" y1="309.71" x2="300.86" y2="309.71"/>
    </g>
    <g>
      <line class="cls-3" x1="306.71" y1="316.02" x2="300.86" y2="316.02"/>
      <line class="cls-3" x1="306.71" y1="309.71" x2="300.86" y2="309.71"/>
    </g>
    <g>
      <line class="cls-3" x1="306.71" y1="316.02" x2="300.86" y2="316.02"/>
      <line class="cls-3" x1="306.71" y1="309.71" x2="300.86" y2="309.71"/>
    </g>
    <g>
      <line class="cls-3" x1="306.71" y1="316.02" x2="300.86" y2="316.02"/>
      <line class="cls-3" x1="306.71" y1="309.71" x2="300.86" y2="309.71"/>
    </g>
    <g>
      <line class="cls-3" x1="306.71" y1="309.71" x2="300.86" y2="309.71"/>
      <line class="cls-3" x1="306.71" y1="303.39" x2="300.86" y2="303.39"/>
    </g>
    <g>
      <line class="cls-3" x1="306.71" y1="309.71" x2="300.86" y2="309.71"/>
      <line class="cls-3" x1="306.71" y1="303.39" x2="300.86" y2="303.39"/>
    </g>
    <g>
      <line class="cls-3" x1="306.71" y1="309.71" x2="300.86" y2="309.71"/>
      <line class="cls-3" x1="306.71" y1="303.39" x2="300.86" y2="303.39"/>
    </g>
    <g>
      <line class="cls-3" x1="306.71" y1="303.39" x2="300.86" y2="303.39"/>
      <line class="cls-3" x1="306.71" y1="297.08" x2="300.86" y2="297.08"/>
    </g>
    <g>
      <line class="cls-3" x1="306.71" y1="290.77" x2="300.86" y2="290.77"/>
      <line class="cls-3" x1="306.71" y1="284.46" x2="300.86" y2="284.46"/>
    </g>
    <g>
      <line class="cls-3" x1="306.71" y1="297.08" x2="300.86" y2="297.08"/>
      <line class="cls-3" x1="306.71" y1="290.77" x2="300.86" y2="290.77"/>
    </g>
  </g>
</svg>