<?xml version="1.0" encoding="UTF-8"?>
<svg id="Camada_1" data-name="Camada 1" xmlns="http://www.w3.org/2000/svg" viewBox="208 278 120 122">
  <defs>
    <style>
      .cls-1 {
        fill: #fff;
      }

      .cls-1, .cls-2 {
        stroke: #1d1d1b;
        stroke-miterlimit: 10;
        stroke-width: 1.66px;
      }

      .cls-2 {
        fill: #ffde00;
      }
    </style>
  </defs>
  <path class="cls-1" d="M305.5,311.68c0-7.53.26-14.83.73-21.78h-31.69c.47,6.95.73,14.25.73,21.78,0,32.97-4.85,61.52-11.92,75.61v.03h54.1c-7.09-14.08-11.94-42.65-11.94-75.65Z"/>
  <path class="cls-1" d="M265.39,319.5l-15.1,13.64c-.77.69-1.96.12-1.96-.93v-10.31c0-1.06-1.19-1.62-1.96-.93l-13.47,12.17c-.77.69-1.96.12-1.96-.93v-10.31c0-1.06-1.19-1.62-1.96-.93l-15.02,13.57c-.26.23-.41.57-.41.93v50.62c0,.68.53,1.23,1.18,1.23h69.29c.65,0,1.18-.55,1.18-1.23v-65.66c0-.68-.53-1.23-1.18-1.23h-17.87c-.28,0-.56.11-.77.3Z"/>
  <polygon class="cls-2" points="277.99 339.05 273.24 339.05 276.35 329.43 268.68 329.43 267.04 348.66 269.5 348.66 267.57 371.37 277.99 339.05"/>
</svg>